<?xml version="1.0" standalone="no"?>
<!DOCTYPE svg PUBLIC "-//W3C//DTD SVG 20010904//EN"
 "http://www.w3.org/TR/2001/REC-SVG-20010904/DTD/svg10.dtd">
<svg version="1.0" xmlns="http://www.w3.org/2000/svg"
 width="2560.000000pt" height="2560.000000pt" viewBox="0 0 2560.000000 2560.000000"
 preserveAspectRatio="xMidYMid meet">

<g transform="translate(0.000000,2560.000000) scale(0.100000,-0.100000)"
fill="#000000" stroke="none">
<path d="M13665 21176 c-300 -228 -729 -709 -1230 -1381 -420 -562 -731 -1020
-1289 -1897 -145 -227 -676 -1102 -676 -1113 0 -2 -20 -37 -43 -77 -68 -114
-190 -326 -231 -401 -20 -37 -45 -83 -56 -102 -11 -19 -36 -65 -56 -102 -20
-37 -45 -81 -54 -98 -115 -196 -554 -1047 -727 -1410 -85 -179 -223 -475 -223
-480 0 -2 -18 -43 -41 -92 -294 -641 -528 -1304 -583 -1653 -55 -346 -43 -860
24 -1095 21 -71 71 -149 127 -195 82 -69 116 -123 178 -280 68 -176 110 -253
184 -344 58 -71 163 -157 240 -196 36 -18 241 -90 257 -90 2 0 4 38 4 85 0 90
28 242 82 445 38 145 94 337 142 483 37 114 163 466 186 522 4 11 38 99 75
195 37 96 74 191 82 210 8 19 19 44 23 55 4 11 15 36 23 55 8 19 36 87 62 150
26 63 58 139 71 168 13 29 24 55 24 57 0 2 11 28 24 57 13 29 38 87 56 128 45
105 68 155 102 230 17 36 53 115 80 175 181 398 598 1241 794 1602 l29 53 45
-44 c88 -84 394 -324 486 -382 18 -10 144 -94 280 -185 137 -92 299 -197 359
-235 238 -146 629 -374 825 -482 25 -13 59 -32 75 -42 79 -47 386 -206 644
-335 240 -120 400 -195 756 -355 195 -88 598 -244 780 -303 267 -86 433 -117
629 -117 166 0 280 13 373 41 57 18 76 30 129 85 34 35 75 66 91 70 15 4 62
23 103 43 137 64 231 183 255 321 l6 35 -74 2 c-68 2 -263 41 -397 78 -30 9
-80 23 -110 31 -88 24 -461 151 -604 206 -72 27 -142 53 -156 58 -37 11 -484
197 -558 231 -35 16 -65 29 -67 29 -2 0 -38 16 -79 35 -42 19 -78 35 -80 35
-3 0 -89 40 -316 147 -341 161 -956 481 -1151 599 -31 19 -59 34 -63 34 -3 0
-52 28 -109 63 -57 35 -110 67 -118 70 -8 4 -26 15 -41 25 -16 9 -74 46 -130
81 -317 198 -635 425 -862 614 -164 135 -398 388 -412 444 -6 22 138 284 316
574 44 72 80 132 80 134 0 4 123 205 220 360 8 13 40 64 69 112 30 48 89 140
130 203 41 63 103 160 139 215 430 664 895 1287 1328 1780 91 104 86 98 211
226 265 273 437 419 687 587 54 36 100 72 103 80 8 20 -69 167 -129 247 -190
251 -609 612 -978 839 -96 60 -245 136 -264 136 -6 0 -43 -24 -81 -54z"/>
<path d="M17293 12788 c4 -159 -104 -563 -279 -1046 -52 -143 -215 -562 -243
-624 -10 -24 -42 -99 -71 -168 -51 -123 -182 -417 -255 -575 -20 -44 -44 -96
-52 -115 -107 -238 -551 -1108 -743 -1455 -56 -102 -84 -152 -123 -225 -22
-41 -51 -92 -64 -112 -13 -21 -23 -40 -23 -43 0 -2 -18 -34 -40 -70 -22 -36
-40 -67 -40 -70 0 -3 -13 -26 -28 -52 -16 -27 -64 -109 -107 -183 -243 -419
-635 -1034 -871 -1370 -33 -47 -78 -110 -99 -140 -60 -86 -351 -473 -372 -495
-10 -11 -57 -67 -103 -125 -47 -58 -96 -118 -110 -134 -314 -365 -565 -598
-843 -780 -64 -43 -64 -41 -19 -131 62 -125 298 -374 517 -546 150 -118 384
-275 472 -316 l72 -35 44 30 c65 46 220 186 327 298 422 442 1033 1271 1624
2204 26 41 86 135 132 209 242 380 689 1145 909 1556 26 50 77 143 112 208 67
124 389 765 441 877 16 36 51 110 77 165 341 726 539 1285 580 1637 18 152 20
462 5 588 -27 213 -58 290 -147 366 -62 53 -91 100 -129 204 -96 270 -226 407
-458 486 -93 32 -94 32 -93 -18z"/>
</g>
</svg>
